<svg viewBox="0 0 782.49 717.5">
  <g data-name="Laag 2">
    <g data-name="Laag 1">
      <path d="M315,236H201.5c-11.5,0-17.5,5.5-22,13.5L120,355H0L199.5,0,399,355h-2L337,249C332.5,241,326.5,236,315,236ZM265,121.5c-3.5-6.5-11-6.5-14.5,0L194.5,222c-3.5,6.5-1,12,6.5,12H315.5c7.5,0,10-5.5,6.5-12Z"/>
      <path d="M782.49,355h-3L626,193c-9-9.5-16.5-12-31.5-12h-148c-14.5,0-19,7-19,21V355h-2V5h240c73,0,117,25,117,89,0,52.5-41,87-97,87h-49c-9,0-11.5,7.5-6.5,13Zm-100-176c32.5,0,60-10.5,60-35.5C742.49,125,728,112,696,112H448.49c-14,0-21,4.5-21,19v27c0,14,4.5,21,19,21Z"/>
      <path d="M675.49,717.5V570c0-14-4.5-21-19-21h-224v-2h224c14.5,0,19-7,19-21V378.5h107v339Z"/>
    </g>
  </g>
</svg>
