
<svg viewBox="0 0 569.45 72.41"><g data-name="Laag 2"><g data-name="Laag 1"><path class="cls-1" d="M38.2 72.41c-14.21 0-23.13-6.16-28.11-11.32A36.2 36.2 0 010 36.2a36.2 36.2 0 0110.09-24.89C15.07 6.15 24 0 38.2 0s23.13 6.15 28.11 11.31a36.17 36.17 0 0110.1 24.89 36.17 36.17 0 01-10.1 24.89c-4.98 5.16-13.9 11.32-28.11 11.32zm0-72C13.65.4.4 18.85.4 36.2S13.65 72 38.2 72 76 53.56 76 36.2 62.76.4 38.2.4zM61.1 50H15.3C5.69 50 .4 45.1.4 36.2s5.29-13.8 14.9-13.8h45.8c9.61 0 14.9 4.9 14.9 13.8S70.71 50 61.1 50zM15.3 22.8C6 22.8.8 27.56.8 36.2S6 49.6 15.3 49.6h45.8c9.36 0 14.5-4.76 14.5-13.4s-5.14-13.4-14.5-13.4zM114.2 71.41H81.6V1h32.6c10.71 0 20.38 3.84 27.23 10.81a34.82 34.82 0 010 48.78c-6.85 6.98-16.52 10.82-27.23 10.82zM82 71h32.2c23.69 0 36.57-17.6 36.8-34.34-.15 9-4.7 13.34-13.9 13.34H86.4c-3.13 0-4.4-1.16-4.4-4V26.4c0-2.84 1.27-4 4.4-4h50.7c9.2 0 13.75 4.37 13.9 13.35C150.77 19 137.89 1.4 114.2 1.4H82zm4.4-48.2c-2.88 0-4 1-4 3.6V46c0 2.59 1.12 3.6 4 3.6h50.7c9.09 0 13.5-4.38 13.5-13.4s-4.41-13.4-13.5-13.4zM224.8 71.41h-68.2V1h68.2v21.8h-63.4c-2.88 0-4 1-4 3.6v5.4c0 2.88 1 4 3.6 4h63.8v.8H161c-2.59 0-3.6 1.12-3.6 4V46c0 2.59 1.12 3.6 4 3.6h63.4zM157 71h67.4V50h-63c-3.13 0-4.4-1.16-4.4-4v-5.4c0-3.1 1.14-4.38 3.92-4.4-2.78 0-3.92-1.3-3.92-4.4v-5.4c0-2.84 1.27-4 4.4-4h63v-21H157zM294.5 71.41h-.8v-45c0-2.59-1.12-3.6-4-3.6H260V1h68.2v21.8h-29.7c-2.88 0-4 1-4 3.6zm-.4-.41V26.4c0-2.84 1.28-4 4.4-4h29.3v-21h-67.4v21h29.3c3.12 0 4.4 1.16 4.4 4zM368.9 72.41c-14.21 0-23.13-6.16-28.11-11.32A36.2 36.2 0 01330.7 36.2a36.2 36.2 0 0110.09-24.89C345.77 6.15 354.69 0 368.9 0S392 6.15 397 11.31a36.2 36.2 0 0110.1 24.89A36.2 36.2 0 01397 61.09c-5 5.16-13.89 11.32-28.1 11.32zm0-72c-24.55 0-37.8 18.45-37.8 35.8S344.35 72 368.9 72s37.8-18.44 37.8-35.8S393.46.4 368.9.4zM391.8 50H346c-9.61 0-14.9-4.9-14.9-13.8s5.29-13.8 14.9-13.8h45.8c9.61 0 14.9 4.9 14.9 13.8S401.41 50 391.8 50zM346 22.8c-9.35 0-14.5 4.76-14.5 13.4s5.15 13.4 14.5 13.4h45.8c9.35 0 14.5-4.76 14.5-13.4s-5.15-13.4-14.5-13.4zM505.2 47.4h-22.7a4.62 4.62 0 00-4.4 2.7l-11.9 21.1h-24l39.9-71 39.9 71h-.4l-12-21.2a4.55 4.55 0 00-4.4-2.6zm-10-22.9a1.57 1.57 0 00-2.9 0l-11.2 20.1c-.7 1.3-.2 2.4 1.3 2.4h22.9c1.5 0 2-1.1 1.3-2.4zM519.3 47h50.15v.4H519.3z"/></g></g></svg>
